#!OML:ASF E:\Style4\Style4.ASF
:FULLY-SPECIFIED
:DEGREES
2494
root -0.0817602 16.7702 0.39451 -10.4435 12.1017 3.24823
lowerback 6.0813 3.20662 1.70056
upperback 3.86774 4.36905 -0.0228261
thorax 0.710999 2.22633 -1.20088
lowerneck -4.57684 -2.98455 -2.77828
upperneck 17.6482 -4.04427 1.93621
head 6.19318 -1.96967 0.806615
rclavicle -4.87954e-014 -1.55052e-014
rhumerus 46.423 -16.3286 -30.6435
rradius 81.1958
rwrist -16.1143
rhand 2.84916 10.3144
rfingers 7.12502
rthumb 28.3164 -17.5649
lclavicle -4.87954e-014 -1.55052e-014
lhumerus 45.0529 20.4488 27.8861
lradius 89.8896
lwrist 13.74
lhand 9.75332 26.1866
lfingers 7.12502
lthumb 34.8923 52.7677
rfemur -3.32685 -11.4747 13.3768
rtibia 49.2818
rfoot -31.4238 -20.8618
rtoes -12.9617
lfemur -7.03199 -2.93903 -21.7952
ltibia 47.3784
lfoot -27.6681 4.14125
ltoes -14.4628
2495
root -0.0845335 16.7834 0.402271 -10.4586 12.0056 3.17797
lowerback 5.95107 3.2158 1.71025
upperback 3.81159 4.3795 0.0306521
thorax 0.721972 2.23051 -1.14598
lowerneck -4.62131 -2.9396 -2.74056
upperneck 17.557 -3.97576 1.87857
head 6.16834 -1.93876 0.786576
rclavicle 6.68413e-015 -1.19271e-015
rhumerus 46.3932 -16.0547 -30.5377
rradius 81.1532
rwrist -16.0064
rhand 2.96952 10.3223
rfingers 7.12502
rthumb 28.4314 -17.5378
lclavicle 6.68413e-015 -1.19271e-015
lhumerus 44.8327 20.1435 27.5245
lradius 89.7254
lwrist 13.7925
lhand 9.46435 26.1601
lfingers 7.12502
lthumb 34.6181 52.8045
rfemur -3.14455 -11.3879 13.4942
rtibia 48.9559
rfoot -31.4645 -20.7992
rtoes -12.6526
lfemur -6.84937 -2.86194 -21.6814
ltibia 47.1026
lfoot -27.616 4.11677
ltoes -14.5229
2496
root -0.0864036 16.8006 0.408714 -10.3739 11.9384 3.20748
lowerback 5.78548 3.24343 1.6624
upperback 3.71833 4.4114 0.0139195
thorax 0.716157 2.24475 -1.13111
lowerneck -4.73005 -2.92563 -2.73504
upperneck 17.5998 -3.96736 1.94513
head 6.20171 -1.9287 0.805388
rclavicle -2.10091e-014 3.57812e-015
rhumerus 46.3537 -15.8884 -30.4094
rradius 81.1072
rwrist -15.9691
rhand 3.21518 10.3047
rfingers 7.12502
rthumb 28.6662 -17.5159
lclavicle -2.10091e-014 3.57812e-015
lhumerus 44.8256 19.8171 27.2888
lradius 89.4899
lwrist 13.8307
lhand 9.57525 25.9212
lfingers 7.12502
lthumb 34.7234 52.5414
rfemur -3.04108 -11.3249 13.5059
rtibia 48.5928
rfoot -31.38 -20.7659
rtoes -12.5852
lfemur -6.73259 -2.81947 -21.6908
ltibia 46.7749
lfoot -27.5112 4.18191
ltoes -14.5976
2497
root -0.0884561 16.8211 0.414609 -10.3182 11.8512 3.19012
lowerback 5.70561 3.27205 1.69787
upperback 3.61914 4.44999 -0.0191923
thorax 0.664816 2.26356 -1.18506
lowerneck -4.85375 -2.9499 -2.74439
upperneck 17.6665 -4.01092 2.01791
head 6.24706 -1.94407 0.824658
rclavicle 2.04997e-015 2.50469e-014
rhumerus 46.3371 -15.7896 -30.3193
rradius 81.0231
rwrist -15.9972
rhand 3.42738 10.2267
rfingers 7.12502
rthumb 28.8689 -17.5595
lclavicle 2.04997e-015 2.50469e-014
lhumerus 44.8689 19.5861 27.0943
lradius 89.372
lwrist 13.9192
lhand 9.76181 26.0868
lfingers 7.12502
lthumb 34.9004 52.666
rfemur -2.91342 -11.2368 13.577
rtibia 48.1909
rfoot -31.1132 -20.9014
rtoes -12.9896
lfemur -6.5722 -2.78862 -21.654
ltibia 46.4052
lfoot -27.3933 4.29903
ltoes -14.9314
2498
root -0.0906809 16.8446 0.424109 -10.2658 11.7807 3.15571
lowerback 5.60528 3.30645 1.74469
upperback 3.53339 4.49639 -0.0394197
thorax 0.638904 2.28662 -1.23052
lowerneck -4.98991 -2.97048 -2.7174
upperneck 17.7295 -4.04792 2.05943
head 6.29195 -1.95605 0.828277
rclavicle 4.51738e-014 -1.19271e-015
rhumerus 46.3129 -15.7558 -30.2534
rradius 80.9703
rwrist -16.0004
rhand 3.64903 10.1507
rfingers 7.12502
rthumb 29.0806 -17.5992
lclavicle 4.51738e-014 -1.19271e-015
lhumerus 44.9043 19.3938 26.8563
lradius 89.275
lwrist 14.0625
lhand 9.06195 26.3668
lfingers 7.12502
lthumb 34.2361 53.0979
rfemur -2.72722 -11.1716 13.6541
rtibia 47.7395
rfoot -30.8555 -20.9798
rtoes -13.2244
lfemur -6.377 -2.74652 -21.5905
ltibia 46.0019
lfoot -27.2579 4.37719
ltoes -15.1647
2499
root -0.0948392 16.8678 0.431022 -10.1619 11.7464 3.15432
lowerback 5.45426 3.33292 1.73683
upperback 3.42887 4.52891 -0.0635905
thorax 0.617393 2.30169 -1.24651
lowerneck -4.98655 -2.98683 -2.6976
upperneck 17.7278 -4.07722 2.08451
head 6.29163 -1.96717 0.830917
rclavicle 7.8023e-015 1.47101e-014
rhumerus 46.3334 -15.7105 -30.2432
rradius 80.9073
rwrist -15.9363
rhand 3.81057 10.206
rfingers 7.12502
rthumb 29.2348 -17.5171
lclavicle 7.8023e-015 1.47101e-014
lhumerus 44.9722 19.248 26.6837
lradius 89.1814
lwrist 14.1146
lhand 8.86905 26.276
lfingers 7.12502
lthumb 34.0529 53.0481
rfemur -2.57474 -11.1161 13.7088
rtibia 47.252
rfoot -30.6566 -21.0211
rtoes -13.2018
lfemur -6.22859 -2.7093 -21.542
ltibia 45.5669
lfoot -27.1352 4.21694
ltoes -14.7153
2500
root -0.0987998 16.8928 0.435199 -10.0084 11.7386 3.08701
lowerback 5.28464 3.32347 1.77718
upperback 3.29692 4.51531 -0.0781008
thorax 0.579432 2.29382 -1.27718
lowerneck -5.01434 -2.98385 -2.63017
upperneck 17.7747 -4.07892 2.07004
head 6.30963 -1.96439 0.814406
rclavicle 1.11816e-015 5.56597e-015
rhumerus 46.4505 -15.6717 -30.2331
rradius 80.8352
rwrist -16.0318
rhand 3.75923 10.3465
rfingers 7.12502
rthumb 29.1858 -17.3851
lclavicle 1.11816e-015 5.56597e-015
lhumerus 45.0644 19.187 26.5451
lradius 89.0941
lwrist 14.0481
lhand 9.47957 26.0547
lfingers 7.12502
lthumb 34.6326 52.6957
rfemur -2.49426 -11.1222 13.8341
rtibia 46.7289
rfoot -30.3346 -21.1227
rtoes -13.4046
lfemur -6.15734 -2.73181 -21.4352
ltibia 45.1043
lfoot -26.9675 4.15159
ltoes -14.1271
2501
root -0.0982169 16.9198 0.441695 -9.83226 11.6995 3.14517
lowerback 5.1025 3.32628 1.74589
upperback 3.18916 4.51474 -0.13605
thorax 0.571777 2.29238 -1.3113
lowerneck -5.11235 -2.98048 -2.55435
upperneck 17.8304 -4.07263 2.01249
head 6.34144 -1.96 0.782225
rclavicle 2.60035e-014 1.59028e-015
rhumerus 46.5956 -15.7004 -30.2861
rradius 80.8137
rwrist -16.1326
rhand 3.6564 10.3947
rfingers 7.12502
rthumb 29.0876 -17.354
lclavicle 2.60035e-014 1.59028e-015
lhumerus 45.1989 19.2068 26.4655
lradius 88.9813
lwrist 13.926
lhand 9.92585 25.992
lfingers 7.12502
lthumb 35.056 52.535
rfemur -2.41752 -11.1242 13.7852
rtibia 46.194
rfoot -30.0018 -21.173
rtoes -13.5689
lfemur -6.04236 -2.74732 -21.501
ltibia 44.6057
lfoot -26.7791 4.20753
ltoes -13.8079
2502
root -0.0985231 16.9486 0.45028 -9.67199 11.6557 3.2332
lowerback 4.90318 3.31834 1.62832
upperback 3.12283 4.49614 -0.149332
thorax 0.605316 2.281 -1.24866
lowerneck -5.27541 -2.9635 -2.56565
upperneck 17.9501 -4.03468 1.94042
head 6.40588 -1.94636 0.76078
rclavicle 2.59538e-014 -4.77083e-015
rhumerus 46.8199 -15.7601 -30.3438
rradius 80.8254
rwrist -16.1125
rhand 3.49758 10.3604
rfingers 7.12502
rthumb 28.9359 -17.4144
lclavicle 2.59538e-014 -4.77083e-015
lhumerus 45.2474 19.3341 26.3794
lradius 88.8404
lwrist 13.7965
lhand 9.60638 26.0165
lfingers 7.12502
lthumb 34.7529 52.6299
rfemur -2.2769 -11.1119 13.7059
rtibia 45.6413
rfoot -29.7561 -21.1396
rtoes -13.2906
lfemur -5.88717 -2.72073 -21.5873
ltibia 44.0956
lfoot -26.6255 4.29478
ltoes -13.7471
2503
root -0.100819 16.9758 0.4554 -9.50619 11.6244 3.20821
lowerback 4.72064 3.30798 1.60605
upperback 3.02507 4.47858 -0.12485
thorax 0.601772 2.27053 -1.20266
lowerneck -5.40432 -2.96849 -2.6471
upperneck 18.1503 -4.03078 1.93183
head 6.49378 -1.94867 0.768831
rclavicle -6.44311e-014 1.35174e-014
rhumerus 47.0984 -15.8079 -30.4031
rradius 80.7761
rwrist -16.1379
rhand 3.36956 10.2372
rfingers 7.12502
rthumb 28.8136 -17.5585
lclavicle -6.44311e-014 1.35174e-014
lhumerus 45.2859 19.4563 26.2971
lradius 88.7284
lwrist 13.6941
lhand 8.91612 26.2937
lfingers 7.12502
lthumb 34.0976 53.0558
rfemur -2.16246 -11.1075 13.7738
rtibia 45.0887
rfoot -29.5923 -21.0515
rtoes -12.9023
lfemur -5.78025 -2.71101 -21.539
ltibia 43.5831
lfoot -26.3944 4.29133
ltoes -13.7406
2504
root -0.1022 17.0053 0.458837 -9.35161 11.5445 3.06557
lowerback 4.55972 3.33606 1.75992
upperback 2.90361 4.51912 -0.0891668
thorax 0.576804 2.2911 -1.24699
lowerneck -5.42766 -2.99834 -2.69603
upperneck 18.2543 -4.06658 1.93068
head 6.53306 -1.9686 0.773046
rclavicle 3.63403e-014 -3.97569e-015
rhumerus 47.3184 -15.939 -30.4516
rradius 80.7091
rwrist -16.1782
rhand 3.3424 10.2909
rfingers 7.12502
rthumb 28.7877 -17.5092
lclavicle 3.63403e-014 -3.97569e-015
lhumerus 45.4199 19.5216 26.3074
lradius 88.6706
lwrist 13.4725
lhand 8.7808 26.2506
lfingers 7.12502
lthumb 33.9691 53.0413
rfemur -2.07841 -11.054 13.9895
rtibia 44.5357
rfoot -29.5653 -20.8327
rtoes -12.0533
lfemur -5.69593 -2.70123 -21.3574
ltibia 43.0976
lfoot -26.1712 4.13996
ltoes -13.1329
2505
root -0.10268 17.0343 0.462758 -9.16274 11.5253 3.03162
lowerback 4.42147 3.34694 1.81663
upperback 2.76233 4.53355 -0.101426
thorax 0.514351 2.29709 -1.28788
lowerneck -5.35948 -2.98527 -2.62318
upperneck 18.2152 -4.04581 1.86013
head 6.50509 -1.95988 0.741342
rclavicle -6.12008e-014 2.18663e-014
rhumerus 47.5127 -16.0909 -30.5454
rradius 80.7209
rwrist -16.1841
rhand 3.32447 10.325
rfingers 7.12502
rthumb 28.7706 -17.478
lclavicle -6.12008e-014 2.18663e-014
lhumerus 45.6022 19.5771 26.3253
lradius 88.5388
lwrist 13.1052
lhand 8.81743 25.8575
lfingers 7.12502
lthumb 34.0039 52.6404
rfemur -2.00263 -11.0644 14.0672
rtibia 44.0157
rfoot -29.6141 -20.6414
rtoes -11.1791
lfemur -5.65342 -2.72386 -21.3159
ltibia 42.638
lfoot -25.9828 4.25451
ltoes -13.298
2506
root -0.104611 17.0587 0.465835 -8.98682 11.5042 2.99
lowerback 4.31626 3.34795 1.85728
upperback 2.61855 4.53486 -0.124328
thorax 0.430174 2.2961 -1.3326
lowerneck -5.3585 -2.95761 -2.50859
upperneck 18.2622 -4.01463 1.81621
head 6.51573 -1.94036 0.710515
rclavicle 2.24502e-014 -2.18663e-014
rhumerus 47.6978 -16.2893 -30.6311
rradius 80.7772
rwrist -16.2631
rhand 3.29781 10.3143
rfingers 7.12502
rthumb 28.7451 -17.493
lclavicle 2.24502e-014 -2.18663e-014
lhumerus 45.8233 19.693 26.3506
lradius 88.377
lwrist 12.8145
lhand 8.48004 25.6589
lfingers 7.12502
lthumb 33.6833 52.5124
rfemur -1.93697 -11.049 14.1672
rtibia 43.5202
rfoot -29.4081 -20.7387
rtoes -11.5205
lfemur -5.61928 -2.73625 -21.2614
ltibia 42.2089
lfoot -25.7849 4.46699
ltoes -13.855
2507
root -0.106957 17.0805 0.466571 -8.82206 11.4396 2.93232
lowerback 4.19552 3.33541 1.86104
upperback 2.51465 4.51627 -0.101161
thorax 0.388253 2.28509 -1.30667
lowerneck -5.41902 -2.90669 -2.48972
upperneck 18.3326 -3.9472 1.81664
head 6.5468 -1.90583 0.711259
rclavicle -1.05033e-013 -3.97569e-015
rhumerus 48.0168 -16.4848 -30.7073
rradius 80.8332
rwrist -16.3295
rhand 3.15434 10.1759
rfingers 7.12502
rthumb 28.608 -17.6546
lclavicle -1.05033e-013 -3.97569e-015
lhumerus 45.9926 19.9547 26.4214
lradius 88.2518
lwrist 12.5077
lhand 8.30035 25.5571
lfingers 7.12502
lthumb 33.5126 52.4478
rfemur -1.90937 -10.9926 14.3038
rtibia 43.0624
rfoot -29.0439 -20.9783
rtoes -12.21
lfemur -5.56985 -2.78313 -21.1886
ltibia 41.7857
lfoot -25.6595 4.49341
ltoes -13.6088
2508
root -0.107392 17.1036 0.468261 -8.64939 11.39 2.83116
lowerback 4.01768 3.31854 1.92795
upperback 2.41769 4.49286 -0.0594388
thorax 0.388582 2.2727 -1.29255
lowerneck -5.46215 -2.86878 -2.55123
upperneck 18.4716 -3.89743 1.86544
head 6.59987 -1.88108 0.739469
rclavicle -2.23633e-015 -1.03368e-014
rhumerus 48.3637 -16.624 -30.7971
rradius 80.8376
rwrist -16.2348
rhand 2.75966 9.95935
rfingers 7.12502
rthumb 28.2309 -17.9341
lclavicle -2.23633e-015 -1.03368e-014
lhumerus 46.1324 20.2521 26.5242
lradius 88.2527
lwrist 12.3772
lhand 8.3793 25.4848
lfingers 7.12502
lthumb 33.5876 52.3592
rfemur -1.88795 -11.0017 14.4585
rtibia 42.6302
rfoot -28.8485 -21.0331
rtoes -12.471
lfemur -5.56109 -2.83792 -21.0752
ltibia 41.3819
lfoot -25.5095 4.51238
ltoes -13.3986
